<svg width="51" height="88" viewBox="0 0 51 88" fill="none" xmlns="http://www.w3.org/2000/svg">
<g clip-path="url(#clip0_4_479)">
<path d="M42.2074 6.17219C39.4457 8.5354 37.2303 11.4611 35.7123 14.75C34.1957 18.0367 33.4127 21.6092 33.4168 25.2235V68.906L0 87.9991V25.2235C0.0014221 20.3862 1.408 15.6516 4.05156 11.5859C6.69812 7.51606 10.4686 4.28599 14.9141 2.28026C19.3633 0.272351 24.3 -0.428071 29.1387 0.262092C33.9757 0.951266 38.5116 3.00253 42.2074 6.17219Z" fill="#E9672B"/>
<path d="M50.9995 25.2231V78.9275L33.4163 68.9066V25.2236C33.4121 21.6092 34.1951 18.0365 35.7118 14.7497C37.2296 11.4608 39.4448 8.5351 42.2064 6.17188L42.4987 6.41983C45.1766 8.78125 47.3192 11.6786 48.7854 14.9208C50.2505 18.1609 51.0052 21.6724 50.9995 25.2231Z" fill="#A2D4C5"/>
<path d="M51 78.9285V88.0003H0L33.4168 68.9072L51 78.9285Z" fill="#AF4920"/>
</g>
<defs>
<clipPath id="clip0_4_479">
<rect width="51" height="88" fill="white"/>
</clipPath>
</defs>
</svg>
